<svg xmlns="http://www.w3.org/2000/svg" xmlns:xlink="http://www.w3.org/1999/xlink" width="500" zoomAndPan="magnify" viewBox="0 0 375 374.999991" height="500" preserveAspectRatio="xMidYMid meet" version="1.0"><defs><clipPath id="523fdacbf4"><path d="M 27.835938 279 L 90 279 L 90 341 L 27.835938 341 Z M 27.835938 279 " clip-rule="nonzero"/></clipPath><clipPath id="8649cda0fc"><path d="M 305 33.625 L 328 33.625 L 328 69 L 305 69 Z M 305 33.625 " clip-rule="nonzero"/></clipPath><clipPath id="c4ff391768"><path d="M 313 54 L 347.335938 54 L 347.335938 76 L 313 76 Z M 313 54 " clip-rule="nonzero"/></clipPath><clipPath id="2ad0b3d84e"><path d="M 285 33.625 L 305 33.625 L 305 53 L 285 53 Z M 285 33.625 " clip-rule="nonzero"/></clipPath></defs><path fill="#ffffff" d="M 50.195312 323.136719 L 304.726562 323.691406 C 306.949219 323.691406 308.828125 322.039062 309.113281 319.828125 L 329.386719 161.59375 C 329.882812 157.742188 327.070312 154.105469 323.191406 154.105469 L 71.953125 154.332031 L 50.195312 323.136719 " fill-opacity="1" fill-rule="nonzero"/><path fill="#000000" d="M 50.628906 322.753906 L 304.730469 323.308594 C 306.753906 323.308594 308.472656 321.792969 308.734375 319.78125 L 329.007812 161.542969 C 329.246094 159.6875 328.683594 157.832031 327.464844 156.449219 C 326.351562 155.183594 324.832031 154.488281 323.191406 154.488281 L 72.289062 154.714844 Z M 304.726562 324.074219 L 50.195312 323.519531 C 50.082031 323.519531 49.980469 323.472656 49.90625 323.390625 C 49.832031 323.308594 49.800781 323.195312 49.8125 323.089844 L 71.570312 154.285156 C 71.597656 154.09375 71.757812 153.953125 71.953125 153.953125 L 323.191406 153.722656 C 325.054688 153.722656 326.78125 154.511719 328.039062 155.941406 C 329.40625 157.492188 330.035156 159.566406 329.769531 161.640625 L 309.496094 319.878906 C 309.183594 322.269531 307.136719 324.074219 304.726562 324.074219 " fill-opacity="1" fill-rule="nonzero"/><path fill="#ffffff" d="M 44.976562 322.9375 L 294.425781 322.9375 C 296.648438 322.9375 298.53125 321.277344 298.8125 319.0625 L 318.957031 162.246094 C 319.519531 157.890625 316.140625 154.03125 311.769531 154.03125 L 65.539062 154.03125 C 63.3125 154.03125 61.4375 155.691406 61.152344 157.90625 L 40.59375 317.925781 C 40.25 320.582031 42.3125 322.9375 44.976562 322.9375 " fill-opacity="1" fill-rule="nonzero"/><path fill="#000000" d="M 65.539062 154.417969 C 63.511719 154.417969 61.792969 155.9375 61.53125 157.957031 L 40.972656 317.976562 C 40.824219 319.136719 41.179688 320.304688 41.953125 321.183594 C 42.722656 322.050781 43.824219 322.550781 44.980469 322.550781 L 294.425781 322.550781 C 296.449219 322.550781 298.171875 321.03125 298.433594 319.011719 L 318.578125 162.199219 C 318.832031 160.222656 318.226562 158.238281 316.910156 156.746094 C 315.609375 155.265625 313.730469 154.417969 311.765625 154.417969 Z M 294.425781 323.320312 L 44.980469 323.320312 C 43.601562 323.320312 42.289062 322.726562 41.378906 321.691406 C 40.460938 320.648438 40.035156 319.257812 40.210938 317.878906 L 60.769531 157.855469 C 61.078125 155.460938 63.128906 153.652344 65.539062 153.652344 L 311.765625 153.652344 C 313.953125 153.652344 316.039062 154.59375 317.484375 156.238281 C 318.945312 157.894531 319.621094 160.101562 319.339844 162.296875 L 299.191406 319.109375 C 298.886719 321.507812 296.835938 323.320312 294.425781 323.320312 " fill-opacity="1" fill-rule="nonzero"/><path fill="#000000" d="M 59.085938 307.578125 L 74.039062 307.578125 L 79.5 264.523438 L 64.542969 264.523438 Z M 74.375 308.34375 L 58.648438 308.34375 C 58.539062 308.34375 58.433594 308.296875 58.363281 308.214844 C 58.289062 308.132812 58.253906 308.019531 58.269531 307.910156 L 63.824219 264.089844 C 63.847656 263.898438 64.011719 263.757812 64.207031 263.757812 L 79.933594 263.757812 C 80.042969 263.757812 80.148438 263.804688 80.222656 263.886719 C 80.292969 263.96875 80.328125 264.078125 80.316406 264.1875 L 74.757812 308.007812 C 74.734375 308.199219 74.570312 308.34375 74.375 308.34375 " fill-opacity="1" fill-rule="nonzero"/><path fill="#000000" d="M 77.945312 307.578125 L 92.898438 307.578125 L 100.84375 247.824219 L 85.886719 247.824219 Z M 93.234375 308.34375 L 77.507812 308.34375 C 77.398438 308.34375 77.289062 308.296875 77.21875 308.214844 C 77.144531 308.128906 77.113281 308.019531 77.125 307.910156 L 85.171875 247.390625 C 85.195312 247.199219 85.359375 247.058594 85.550781 247.058594 L 101.28125 247.058594 C 101.390625 247.058594 101.496094 247.105469 101.570312 247.1875 C 101.644531 247.273438 101.675781 247.382812 101.660156 247.492188 L 93.613281 308.011719 C 93.589844 308.203125 93.425781 308.34375 93.234375 308.34375 " fill-opacity="1" fill-rule="nonzero"/><path fill="#000000" d="M 96.800781 307.578125 L 111.753906 307.578125 L 118.988281 252.441406 L 104.035156 252.441406 Z M 112.089844 308.34375 L 96.363281 308.34375 C 96.253906 308.34375 96.148438 308.296875 96.074219 308.214844 C 96.003906 308.128906 95.96875 308.019531 95.984375 307.910156 L 103.316406 252.007812 C 103.34375 251.820312 103.503906 251.675781 103.699219 251.675781 L 119.425781 251.675781 C 119.535156 251.675781 119.640625 251.722656 119.714844 251.808594 C 119.789062 251.890625 119.820312 252 119.808594 252.109375 L 112.472656 308.011719 C 112.445312 308.199219 112.28125 308.34375 112.089844 308.34375 " fill-opacity="1" fill-rule="nonzero"/><path fill="#000000" d="M 115.660156 307.578125 L 130.609375 307.578125 L 140.691406 231.835938 L 125.738281 231.835938 Z M 130.949219 308.34375 L 115.21875 308.34375 C 115.109375 308.34375 115.003906 308.296875 114.933594 308.214844 C 114.859375 308.128906 114.824219 308.019531 114.839844 307.910156 L 125.019531 231.402344 C 125.046875 231.210938 125.207031 231.070312 125.398438 231.070312 L 141.128906 231.070312 C 141.238281 231.070312 141.34375 231.117188 141.417969 231.199219 C 141.492188 231.28125 141.523438 231.390625 141.507812 231.503906 L 131.328125 308.011719 C 131.300781 308.203125 131.140625 308.34375 130.949219 308.34375 " fill-opacity="1" fill-rule="nonzero"/><path fill="#000000" d="M 134.515625 307.578125 L 149.46875 307.578125 L 162.039062 211.9375 L 147.082031 211.9375 Z M 149.804688 308.34375 L 134.078125 308.34375 C 133.964844 308.34375 133.863281 308.296875 133.789062 308.214844 C 133.714844 308.128906 133.683594 308.019531 133.695312 307.910156 L 146.367188 211.503906 C 146.394531 211.3125 146.554688 211.171875 146.746094 211.171875 L 162.476562 211.171875 C 162.585938 211.171875 162.691406 211.21875 162.765625 211.300781 C 162.839844 211.382812 162.871094 211.496094 162.855469 211.605469 L 150.183594 308.011719 C 150.160156 308.199219 149.996094 308.34375 149.804688 308.34375 " fill-opacity="1" fill-rule="nonzero"/><path fill="#000000" d="M 153.375 307.578125 L 168.324219 307.578125 L 180.539062 217.976562 L 165.585938 217.976562 Z M 168.660156 308.34375 L 152.933594 308.34375 C 152.824219 308.34375 152.71875 308.296875 152.644531 308.210938 C 152.570312 308.128906 152.539062 308.019531 152.554688 307.910156 L 164.867188 217.542969 C 164.894531 217.351562 165.054688 217.210938 165.25 217.210938 L 180.976562 217.210938 C 181.089844 217.210938 181.195312 217.257812 181.265625 217.34375 C 181.339844 217.425781 181.371094 217.535156 181.359375 217.648438 L 169.042969 308.011719 C 169.015625 308.203125 168.851562 308.34375 168.660156 308.34375 " fill-opacity="1" fill-rule="nonzero"/><path fill="#000000" d="M 172.585938 307.578125 L 187.539062 307.578125 L 201.886719 203.054688 L 186.929688 203.054688 Z M 187.871094 308.34375 L 172.148438 308.34375 C 172.035156 308.34375 171.929688 308.296875 171.859375 308.210938 C 171.785156 308.128906 171.75 308.019531 171.765625 307.910156 L 186.214844 202.621094 C 186.242188 202.429688 186.40625 202.289062 186.597656 202.289062 L 202.324219 202.289062 C 202.4375 202.289062 202.539062 202.335938 202.613281 202.421875 C 202.6875 202.503906 202.71875 202.617188 202.707031 202.722656 L 188.253906 308.011719 C 188.226562 308.203125 188.066406 308.34375 187.871094 308.34375 " fill-opacity="1" fill-rule="nonzero"/><path fill="#000000" d="M 191.800781 307.53125 L 206.75 307.53125 L 222.164062 197.800781 L 207.210938 197.800781 Z M 207.085938 308.300781 L 191.359375 308.300781 C 191.246094 308.300781 191.140625 308.253906 191.070312 308.167969 C 190.996094 308.085938 190.964844 307.972656 190.980469 307.863281 L 206.496094 197.363281 C 206.519531 197.175781 206.683594 197.035156 206.875 197.035156 L 222.605469 197.035156 C 222.714844 197.035156 222.820312 197.082031 222.894531 197.164062 C 222.96875 197.25 223 197.359375 222.984375 197.46875 L 207.464844 307.972656 C 207.4375 308.160156 207.277344 308.300781 207.085938 308.300781 " fill-opacity="1" fill-rule="nonzero"/><path fill="#000000" d="M 211.011719 307.53125 L 225.964844 307.53125 L 237.070312 227.394531 L 222.117188 227.394531 Z M 226.296875 308.300781 L 210.570312 308.300781 C 210.460938 308.300781 210.355469 308.253906 210.28125 308.167969 C 210.207031 308.085938 210.175781 307.972656 210.191406 307.863281 L 221.402344 226.957031 C 221.429688 226.765625 221.589844 226.625 221.78125 226.625 L 237.511719 226.625 C 237.621094 226.625 237.726562 226.675781 237.800781 226.757812 C 237.875 226.839844 237.90625 226.953125 237.890625 227.0625 L 226.679688 307.96875 C 226.652344 308.160156 226.488281 308.300781 226.296875 308.300781 " fill-opacity="1" fill-rule="nonzero"/><path fill="#000000" d="M 230.230469 307.578125 L 245.179688 307.578125 L 254.417969 245.140625 L 239.460938 245.140625 Z M 245.511719 308.34375 L 229.785156 308.34375 C 229.671875 308.34375 229.566406 308.292969 229.492188 308.210938 C 229.421875 308.128906 229.386719 308.015625 229.402344 307.902344 L 238.75 244.703125 C 238.78125 244.515625 238.941406 244.375 239.132812 244.375 L 254.863281 244.375 C 254.972656 244.375 255.078125 244.421875 255.152344 244.507812 C 255.226562 244.589844 255.257812 244.703125 255.242188 244.816406 L 245.890625 308.015625 C 245.863281 308.203125 245.703125 308.34375 245.511719 308.34375 " fill-opacity="1" fill-rule="nonzero"/><path fill="#000000" d="M 249.4375 307.578125 L 264.390625 307.578125 L 271.972656 253.507812 L 257.019531 253.507812 Z M 264.722656 308.34375 L 248.996094 308.34375 C 248.886719 308.34375 248.78125 308.296875 248.707031 308.214844 C 248.632812 308.128906 248.601562 308.019531 248.617188 307.90625 L 256.304688 253.070312 C 256.332031 252.882812 256.496094 252.742188 256.683594 252.742188 L 272.414062 252.742188 C 272.523438 252.742188 272.632812 252.789062 272.703125 252.875 C 272.777344 252.957031 272.808594 253.070312 272.792969 253.179688 L 265.101562 308.015625 C 265.078125 308.203125 264.914062 308.34375 264.722656 308.34375 " fill-opacity="1" fill-rule="nonzero"/><path fill="#000000" d="M 268.648438 307.578125 L 283.601562 307.578125 L 291.542969 251.378906 L 276.585938 251.378906 Z M 283.933594 308.34375 L 268.207031 308.34375 C 268.097656 308.34375 267.992188 308.296875 267.917969 308.214844 C 267.847656 308.128906 267.8125 308.019531 267.828125 307.90625 L 275.871094 250.941406 C 275.898438 250.75 276.0625 250.609375 276.253906 250.609375 L 291.980469 250.609375 C 292.09375 250.609375 292.199219 250.660156 292.273438 250.742188 C 292.34375 250.828125 292.378906 250.9375 292.359375 251.046875 L 284.316406 308.015625 C 284.289062 308.203125 284.125 308.34375 283.933594 308.34375 " fill-opacity="1" fill-rule="nonzero"/><path fill="#000000" d="M 174.003906 208.519531 C 173.902344 208.519531 173.804688 208.480469 173.730469 208.40625 L 163.3125 198.003906 C 163.164062 197.855469 163.164062 197.609375 163.3125 197.460938 C 163.460938 197.3125 163.707031 197.3125 163.855469 197.460938 L 174.003906 207.59375 L 205.535156 176.105469 C 205.683594 175.953125 205.925781 175.953125 206.078125 176.105469 L 219.320312 189.332031 L 239.503906 169.179688 C 239.652344 169.03125 239.894531 169.03125 240.046875 169.179688 C 240.195312 169.328125 240.195312 169.570312 240.046875 169.722656 L 219.59375 190.144531 C 219.441406 190.296875 219.203125 190.296875 219.050781 190.144531 L 205.804688 176.917969 L 174.273438 208.40625 C 174.199219 208.480469 174.097656 208.519531 174.003906 208.519531 " fill-opacity="1" fill-rule="nonzero"/><path fill="#000000" d="M 66.886719 255.238281 C 66.789062 255.238281 66.6875 255.203125 66.613281 255.128906 C 66.464844 254.976562 66.464844 254.734375 66.613281 254.585938 L 93.789062 227.445312 C 93.941406 227.296875 94.183594 227.296875 94.332031 227.445312 L 108.742188 241.835938 L 152.816406 197.820312 C 152.964844 197.671875 153.210938 197.671875 153.359375 197.820312 C 153.507812 197.96875 153.507812 198.210938 153.359375 198.363281 L 109.011719 242.648438 C 108.863281 242.800781 108.621094 242.800781 108.46875 242.648438 L 94.0625 228.257812 L 67.15625 255.128906 C 67.082031 255.203125 66.984375 255.238281 66.886719 255.238281 " fill-opacity="1" fill-rule="nonzero"/><path fill="#ffffff" d="M 91.414062 227.714844 C 91.414062 226.257812 92.597656 225.070312 94.0625 225.070312 C 95.523438 225.070312 96.710938 226.257812 96.710938 227.714844 C 96.710938 229.179688 95.523438 230.363281 94.0625 230.363281 C 92.597656 230.363281 91.414062 229.179688 91.414062 227.714844 " fill-opacity="1" fill-rule="nonzero"/><path fill="#000000" d="M 94.0625 225.457031 C 92.8125 225.457031 91.796875 226.46875 91.796875 227.714844 C 91.796875 228.964844 92.8125 229.980469 94.0625 229.980469 C 95.308594 229.980469 96.328125 228.964844 96.328125 227.714844 C 96.328125 226.46875 95.308594 225.457031 94.0625 225.457031 Z M 94.0625 230.746094 C 92.390625 230.746094 91.027344 229.386719 91.027344 227.714844 C 91.027344 226.046875 92.390625 224.6875 94.0625 224.6875 C 95.734375 224.6875 97.09375 226.046875 97.09375 227.714844 C 97.09375 229.386719 95.734375 230.746094 94.0625 230.746094 " fill-opacity="1" fill-rule="nonzero"/><path fill="#ffffff" d="M 171.4375 208.027344 C 171.4375 206.566406 172.621094 205.382812 174.085938 205.382812 C 175.546875 205.382812 176.734375 206.566406 176.734375 208.027344 C 176.734375 209.488281 175.546875 210.675781 174.085938 210.675781 C 172.621094 210.675781 171.4375 209.488281 171.4375 208.027344 " fill-opacity="1" fill-rule="nonzero"/><path fill="#000000" d="M 174.085938 205.765625 C 172.835938 205.765625 171.820312 206.78125 171.820312 208.027344 C 171.820312 209.277344 172.835938 210.289062 174.085938 210.289062 C 175.332031 210.289062 176.347656 209.277344 176.347656 208.027344 C 176.347656 206.78125 175.332031 205.765625 174.085938 205.765625 Z M 174.085938 211.058594 C 172.414062 211.058594 171.050781 209.699219 171.050781 208.027344 C 171.050781 206.359375 172.414062 205 174.085938 205 C 175.757812 205 177.117188 206.359375 177.117188 208.027344 C 177.117188 209.699219 175.757812 211.058594 174.085938 211.058594 " fill-opacity="1" fill-rule="nonzero"/><path fill="#000000" d="M 203.429688 176.078125 C 203.429688 174.613281 204.617188 173.429688 206.078125 173.429688 C 207.542969 173.429688 208.726562 174.613281 208.726562 176.078125 C 208.726562 177.535156 207.542969 178.722656 206.078125 178.722656 C 204.617188 178.722656 203.429688 177.535156 203.429688 176.078125 " fill-opacity="1" fill-rule="nonzero"/><path fill="#000000" d="M 206.078125 172.664062 C 204.195312 172.664062 202.664062 174.195312 202.664062 176.078125 C 202.664062 177.957031 204.195312 179.488281 206.078125 179.488281 C 207.964844 179.488281 209.496094 177.957031 209.496094 176.078125 C 209.496094 174.195312 207.964844 172.664062 206.078125 172.664062 Z M 206.078125 173.433594 C 207.542969 173.433594 208.726562 174.613281 208.726562 176.078125 C 208.726562 177.535156 207.542969 178.722656 206.078125 178.722656 C 204.617188 178.722656 203.429688 177.535156 203.429688 176.078125 C 203.429688 174.613281 204.617188 173.433594 206.078125 173.433594 " fill-opacity="1" fill-rule="nonzero"/><path fill="#ffffff" d="M 217.046875 189.675781 C 217.046875 188.214844 218.234375 187.03125 219.695312 187.03125 C 221.160156 187.03125 222.34375 188.214844 222.34375 189.675781 C 222.34375 191.136719 221.160156 192.320312 219.695312 192.320312 C 218.234375 192.320312 217.046875 191.136719 217.046875 189.675781 " fill-opacity="1" fill-rule="nonzero"/><path fill="#000000" d="M 219.695312 186.265625 C 217.8125 186.265625 216.28125 187.792969 216.28125 189.675781 C 216.28125 191.558594 217.8125 193.085938 219.695312 193.085938 C 221.582031 193.085938 223.113281 191.558594 223.113281 189.675781 C 223.113281 187.792969 221.582031 186.265625 219.695312 186.265625 Z M 219.695312 187.03125 C 221.160156 187.03125 222.34375 188.214844 222.34375 189.675781 C 222.34375 191.136719 221.160156 192.320312 219.695312 192.320312 C 218.234375 192.320312 217.046875 191.136719 217.046875 189.675781 C 217.046875 188.214844 218.234375 187.03125 219.695312 187.03125 " fill-opacity="1" fill-rule="nonzero"/><path fill="#ffffff" d="M 236.515625 170.234375 C 236.515625 168.773438 237.699219 167.589844 239.164062 167.589844 C 240.625 167.589844 241.8125 168.773438 241.8125 170.234375 C 241.8125 171.695312 240.625 172.878906 239.164062 172.878906 C 237.699219 172.878906 236.515625 171.695312 236.515625 170.234375 " fill-opacity="1" fill-rule="nonzero"/><path fill="#000000" d="M 239.164062 166.824219 C 237.28125 166.824219 235.746094 168.355469 235.746094 170.234375 C 235.746094 172.117188 237.28125 173.648438 239.164062 173.648438 C 241.046875 173.648438 242.582031 172.117188 242.582031 170.234375 C 242.582031 168.355469 241.046875 166.824219 239.164062 166.824219 Z M 239.164062 167.589844 C 240.625 167.589844 241.8125 168.773438 241.8125 170.234375 C 241.8125 171.695312 240.625 172.878906 239.164062 172.878906 C 237.699219 172.878906 236.515625 171.695312 236.515625 170.234375 C 236.515625 168.773438 237.699219 167.589844 239.164062 167.589844 " fill-opacity="1" fill-rule="nonzero"/><path fill="#ffffff" d="M 106.339844 242.070312 C 106.339844 240.609375 107.523438 239.425781 108.988281 239.425781 C 110.449219 239.425781 111.636719 240.609375 111.636719 242.070312 C 111.636719 243.53125 110.449219 244.714844 108.988281 244.714844 C 107.523438 244.714844 106.339844 243.53125 106.339844 242.070312 " fill-opacity="1" fill-rule="nonzero"/><path fill="#000000" d="M 108.988281 239.808594 C 107.738281 239.808594 106.722656 240.824219 106.722656 242.070312 C 106.722656 243.316406 107.738281 244.332031 108.988281 244.332031 C 110.234375 244.332031 111.25 243.316406 111.25 242.070312 C 111.25 240.824219 110.234375 239.808594 108.988281 239.808594 Z M 108.988281 245.101562 C 107.3125 245.101562 105.953125 243.742188 105.953125 242.070312 C 105.953125 240.402344 107.3125 239.042969 108.988281 239.042969 C 110.660156 239.042969 112.019531 240.402344 112.019531 242.070312 C 112.019531 243.742188 110.660156 245.101562 108.988281 245.101562 " fill-opacity="1" fill-rule="nonzero"/><path fill="#ffffff" d="M 155.863281 192.875 C 155.863281 191.417969 157.050781 190.230469 158.511719 190.230469 C 159.976562 190.230469 161.160156 191.417969 161.160156 192.875 C 161.160156 194.339844 159.976562 195.519531 158.511719 195.519531 C 157.050781 195.519531 155.863281 194.339844 155.863281 192.875 " fill-opacity="1" fill-rule="nonzero"/><path fill="#000000" d="M 158.511719 190.613281 C 157.261719 190.613281 156.246094 191.628906 156.246094 192.875 C 156.246094 194.125 157.261719 195.140625 158.511719 195.140625 C 159.757812 195.140625 160.777344 194.125 160.777344 192.875 C 160.777344 191.628906 159.757812 190.613281 158.511719 190.613281 Z M 158.511719 195.90625 C 156.839844 195.90625 155.480469 194.546875 155.480469 192.875 C 155.480469 191.207031 156.839844 189.847656 158.511719 189.847656 C 160.183594 189.847656 161.542969 191.207031 161.542969 192.875 C 161.542969 194.546875 160.183594 195.90625 158.511719 195.90625 " fill-opacity="1" fill-rule="nonzero"/><path fill="#ffffff" d="M 63.640625 255.0625 C 63.640625 253.601562 64.824219 252.417969 66.289062 252.417969 C 67.75 252.417969 68.9375 253.601562 68.9375 255.0625 C 68.9375 256.523438 67.75 257.707031 66.289062 257.707031 C 64.824219 257.707031 63.640625 256.523438 63.640625 255.0625 " fill-opacity="1" fill-rule="nonzero"/><path fill="#000000" d="M 66.289062 252.800781 C 65.039062 252.800781 64.023438 253.816406 64.023438 255.0625 C 64.023438 256.308594 65.039062 257.324219 66.289062 257.324219 C 67.539062 257.324219 68.554688 256.308594 68.554688 255.0625 C 68.554688 253.816406 67.539062 252.800781 66.289062 252.800781 Z M 66.289062 258.089844 C 64.617188 258.089844 63.253906 256.730469 63.253906 255.0625 C 63.253906 253.390625 64.617188 252.03125 66.289062 252.03125 C 67.960938 252.03125 69.320312 253.390625 69.320312 255.0625 C 69.320312 256.730469 67.960938 258.089844 66.289062 258.089844 " fill-opacity="1" fill-rule="nonzero"/><path fill="#ffffff" d="M 280.648438 226.894531 L 130.027344 226.894531 C 126.945312 226.894531 124.449219 229.386719 124.449219 232.460938 L 124.449219 250.296875 C 124.449219 253.375 126.945312 255.867188 130.027344 255.867188 L 280.648438 255.867188 C 283.726562 255.867188 286.222656 253.375 286.222656 250.296875 L 286.222656 232.460938 C 286.222656 229.386719 283.726562 226.894531 280.648438 226.894531 " fill-opacity="1" fill-rule="nonzero"/><path fill="#000000" d="M 130.027344 227.277344 C 127.164062 227.277344 124.835938 229.601562 124.835938 232.460938 L 124.835938 250.300781 C 124.835938 253.15625 127.164062 255.484375 130.027344 255.484375 L 280.648438 255.484375 C 283.511719 255.484375 285.839844 253.15625 285.839844 250.300781 L 285.839844 232.460938 C 285.839844 229.601562 283.511719 227.277344 280.648438 227.277344 Z M 280.648438 256.25 L 130.027344 256.25 C 126.738281 256.25 124.066406 253.582031 124.066406 250.300781 L 124.066406 232.460938 C 124.066406 229.179688 126.738281 226.511719 130.027344 226.511719 L 280.648438 226.511719 C 283.933594 226.511719 286.605469 229.179688 286.605469 232.460938 L 286.605469 250.300781 C 286.605469 253.582031 283.933594 256.25 280.648438 256.25 " fill-opacity="1" fill-rule="nonzero"/><path fill="#000000" d="M 130.027344 227.277344 C 127.164062 227.277344 124.835938 229.601562 124.835938 232.460938 L 124.835938 250.300781 C 124.835938 253.15625 127.164062 255.484375 130.027344 255.484375 L 280.648438 255.484375 C 283.511719 255.484375 285.839844 253.15625 285.839844 250.300781 L 285.839844 232.460938 C 285.839844 229.601562 283.511719 227.277344 280.648438 227.277344 Z M 280.648438 256.25 L 130.027344 256.25 C 126.738281 256.25 124.066406 253.582031 124.066406 250.300781 L 124.066406 232.460938 C 124.066406 229.179688 126.738281 226.511719 130.027344 226.511719 L 280.648438 226.511719 C 283.933594 226.511719 286.605469 229.179688 286.605469 232.460938 L 286.605469 250.300781 C 286.605469 253.582031 283.933594 256.25 280.648438 256.25 " fill-opacity="1" fill-rule="nonzero"/><path fill="#ffffff" d="M 160.265625 278.015625 C 141.132812 297.121094 110.113281 297.121094 90.980469 278.015625 C 71.847656 258.910156 71.847656 227.933594 90.980469 208.828125 C 110.113281 189.71875 141.132812 189.71875 160.265625 208.828125 C 179.398438 227.933594 179.398438 258.910156 160.265625 278.015625 Z M 163.660156 205.433594 C 142.652344 184.453125 108.589844 184.453125 87.582031 205.433594 C 66.574219 226.414062 66.574219 260.429688 87.582031 281.410156 C 108.589844 302.390625 142.652344 302.390625 163.660156 281.410156 C 184.671875 260.429688 184.671875 226.414062 163.660156 205.433594 " fill-opacity="1" fill-rule="nonzero"/><path fill="#000000" d="M 160.265625 278.015625 C 141.132812 297.121094 110.113281 297.121094 90.980469 278.015625 C 71.847656 258.910156 71.847656 227.933594 90.980469 208.828125 C 110.113281 189.71875 141.132812 189.71875 160.265625 208.828125 C 179.398438 227.933594 179.398438 258.910156 160.265625 278.015625 Z M 163.660156 205.433594 C 142.652344 184.453125 108.589844 184.453125 87.582031 205.433594 C 66.574219 226.414062 66.574219 260.429688 87.582031 281.410156 C 108.589844 302.390625 142.652344 302.390625 163.660156 281.410156 C 184.671875 260.429688 184.671875 226.414062 163.660156 205.433594 " fill-opacity="1" fill-rule="nonzero"/><path fill="#000000" d="M 125.621094 194.878906 C 112.640625 194.878906 100.433594 199.929688 91.253906 209.097656 C 82.070312 218.265625 77.015625 230.457031 77.015625 243.421875 C 77.015625 256.386719 82.070312 268.578125 91.253906 277.746094 C 100.433594 286.914062 112.640625 291.960938 125.621094 291.960938 C 138.605469 291.960938 150.8125 286.914062 159.992188 277.746094 C 169.171875 268.578125 174.230469 256.386719 174.230469 243.421875 C 174.230469 230.457031 169.171875 218.265625 159.992188 209.097656 C 150.8125 199.929688 138.605469 194.878906 125.621094 194.878906 Z M 125.621094 292.730469 C 112.433594 292.730469 100.035156 287.601562 90.710938 278.289062 C 81.382812 268.976562 76.25 256.59375 76.25 243.421875 C 76.25 230.25 81.382812 217.867188 90.710938 208.554688 C 100.035156 199.242188 112.433594 194.113281 125.621094 194.113281 C 138.8125 194.113281 151.210938 199.242188 160.535156 208.554688 C 169.859375 217.867188 174.996094 230.25 174.996094 243.421875 C 174.996094 256.59375 169.859375 268.976562 160.535156 278.289062 L 160.265625 278.015625 L 160.535156 278.289062 C 151.210938 287.601562 138.8125 292.730469 125.621094 292.730469 Z M 125.621094 190.082031 C 111.355469 190.082031 97.941406 195.628906 87.855469 205.703125 C 77.765625 215.777344 72.210938 229.175781 72.210938 243.421875 C 72.210938 257.667969 77.765625 271.066406 87.855469 281.140625 C 108.679688 301.9375 142.566406 301.9375 163.390625 281.140625 C 184.214844 260.34375 184.214844 226.5 163.390625 205.703125 C 153.304688 195.628906 139.890625 190.082031 125.621094 190.082031 Z M 125.621094 297.503906 C 111.75 297.503906 97.875 292.230469 87.3125 281.679688 C 77.078125 271.460938 71.441406 257.875 71.441406 243.421875 C 71.441406 228.96875 77.078125 215.382812 87.3125 205.160156 C 97.542969 194.941406 111.148438 189.3125 125.621094 189.3125 C 140.09375 189.3125 153.703125 194.941406 163.933594 205.160156 C 185.058594 226.257812 185.058594 260.582031 163.933594 281.679688 C 153.371094 292.230469 139.496094 297.503906 125.621094 297.503906 " fill-opacity="1" fill-rule="nonzero"/><path fill="#ffffff" d="M 29.820312 338.179688 L 30.644531 339.003906 C 32.628906 340.984375 35.84375 340.984375 37.828125 339.003906 L 89.519531 287.382812 L 81.511719 279.382812 L 29.820312 331.003906 C 27.835938 332.988281 27.835938 336.199219 29.820312 338.179688 " fill-opacity="1" fill-rule="nonzero"/><g clip-path="url(#523fdacbf4)"><path fill="#000000" d="M 30.089844 337.910156 L 30.914062 338.730469 C 31.800781 339.617188 32.980469 340.105469 34.234375 340.105469 C 35.492188 340.105469 36.671875 339.617188 37.558594 338.730469 L 88.976562 287.382812 L 81.511719 279.925781 L 30.089844 331.277344 C 29.203125 332.164062 28.714844 333.339844 28.714844 334.59375 C 28.714844 335.847656 29.203125 337.023438 30.089844 337.910156 Z M 34.234375 340.871094 C 32.777344 340.871094 31.402344 340.304688 30.371094 339.273438 L 29.546875 338.453125 C 28.515625 337.421875 27.949219 336.050781 27.949219 334.59375 C 27.949219 333.136719 28.515625 331.765625 29.546875 330.734375 L 81.238281 279.113281 C 81.3125 279.039062 81.410156 279 81.511719 279 C 81.613281 279 81.710938 279.039062 81.78125 279.113281 L 89.792969 287.109375 C 89.941406 287.261719 89.941406 287.503906 89.792969 287.652344 L 38.101562 339.273438 C 37.066406 340.304688 35.695312 340.871094 34.234375 340.871094 " fill-opacity="1" fill-rule="nonzero"/><path fill="#000000" d="M 30.089844 337.910156 L 30.914062 338.730469 C 31.800781 339.617188 32.980469 340.105469 34.234375 340.105469 C 35.492188 340.105469 36.671875 339.617188 37.558594 338.730469 L 88.976562 287.382812 L 81.511719 279.925781 L 30.089844 331.277344 C 29.203125 332.164062 28.714844 333.339844 28.714844 334.59375 C 28.714844 335.847656 29.203125 337.023438 30.089844 337.910156 Z M 34.234375 340.871094 C 32.777344 340.871094 31.402344 340.304688 30.371094 339.273438 L 29.546875 338.453125 C 28.515625 337.421875 27.949219 336.050781 27.949219 334.59375 C 27.949219 333.136719 28.515625 331.765625 29.546875 330.734375 L 81.238281 279.113281 C 81.3125 279.039062 81.410156 279 81.511719 279 C 81.613281 279 81.710938 279.039062 81.78125 279.113281 L 89.792969 287.109375 C 89.941406 287.261719 89.941406 287.503906 89.792969 287.652344 L 38.101562 339.273438 C 37.066406 340.304688 35.695312 340.871094 34.234375 340.871094 " fill-opacity="1" fill-rule="nonzero"/></g><path fill="#ffffff" d="M 59.078125 313.910156 L 63.402344 309.59375 L 59.078125 313.910156 " fill-opacity="1" fill-rule="nonzero"/><path fill="#000000" d="M 59.078125 314.292969 C 58.980469 314.292969 58.878906 314.257812 58.804688 314.179688 C 58.65625 314.03125 58.65625 313.789062 58.804688 313.636719 L 63.128906 309.320312 C 63.277344 309.171875 63.523438 309.171875 63.671875 309.320312 C 63.820312 309.46875 63.820312 309.714844 63.671875 309.863281 L 59.347656 314.179688 C 59.273438 314.257812 59.175781 314.292969 59.078125 314.292969 " fill-opacity="1" fill-rule="nonzero"/><path fill="#000000" d="M 34.234375 337.890625 C 33.390625 337.890625 32.542969 337.570312 31.898438 336.925781 C 30.613281 335.640625 30.613281 333.546875 31.898438 332.261719 L 36.757812 327.410156 C 36.90625 327.257812 37.148438 327.257812 37.300781 327.410156 C 37.449219 327.558594 37.449219 327.800781 37.300781 327.953125 L 32.441406 332.800781 C 31.453125 333.789062 31.453125 335.398438 32.441406 336.382812 C 33.429688 337.371094 35.039062 337.371094 36.027344 336.382812 L 53.09375 319.34375 C 53.242188 319.191406 53.488281 319.191406 53.636719 319.34375 C 53.785156 319.492188 53.785156 319.734375 53.636719 319.882812 L 36.570312 336.925781 C 35.929688 337.570312 35.082031 337.890625 34.234375 337.890625 " fill-opacity="1" fill-rule="nonzero"/><path fill="#000000" d="M 34.234375 337.890625 C 33.390625 337.890625 32.542969 337.570312 31.898438 336.925781 C 30.613281 335.640625 30.613281 333.546875 31.898438 332.261719 L 36.757812 327.410156 C 36.90625 327.257812 37.148438 327.257812 37.300781 327.410156 C 37.449219 327.558594 37.449219 327.800781 37.300781 327.953125 L 32.441406 332.800781 C 31.453125 333.789062 31.453125 335.398438 32.441406 336.382812 C 33.429688 337.371094 35.039062 337.371094 36.027344 336.382812 L 53.09375 319.34375 C 53.242188 319.191406 53.488281 319.191406 53.636719 319.34375 C 53.785156 319.492188 53.785156 319.734375 53.636719 319.882812 L 36.570312 336.925781 C 35.929688 337.570312 35.082031 337.890625 34.234375 337.890625 " fill-opacity="1" fill-rule="nonzero"/><path fill="#000000" d="M 70.628906 290.015625 L 78.871094 298.253906 C 79.914062 299.289062 81.597656 299.289062 82.636719 298.253906 L 85.699219 295.191406 C 86.738281 294.152344 86.738281 292.472656 85.699219 291.433594 L 77.453125 283.199219 C 76.414062 282.160156 74.730469 282.160156 73.691406 283.199219 L 70.628906 286.257812 C 69.585938 287.296875 69.585938 288.980469 70.628906 290.015625 " fill-opacity="1" fill-rule="nonzero"/><path fill="#000000" d="M 75.574219 282.804688 C 74.964844 282.804688 74.390625 283.039062 73.960938 283.46875 L 70.898438 286.53125 C 70.46875 286.957031 70.230469 287.53125 70.230469 288.136719 C 70.230469 288.746094 70.46875 289.316406 70.898438 289.746094 L 79.144531 297.980469 C 79.574219 298.410156 80.144531 298.644531 80.753906 298.644531 C 81.363281 298.644531 81.933594 298.410156 82.363281 297.980469 L 85.429688 294.921875 C 86.316406 294.035156 86.316406 292.589844 85.429688 291.707031 L 77.183594 283.46875 C 76.753906 283.039062 76.179688 282.804688 75.574219 282.804688 Z M 80.753906 299.414062 C 79.941406 299.414062 79.175781 299.097656 78.601562 298.523438 L 70.355469 290.289062 C 69.78125 289.710938 69.464844 288.949219 69.464844 288.136719 C 69.464844 287.324219 69.78125 286.5625 70.355469 285.988281 L 73.417969 282.929688 C 73.996094 282.355469 74.757812 282.039062 75.574219 282.039062 C 76.386719 282.039062 77.148438 282.355469 77.726562 282.929688 L 85.96875 291.164062 C 87.15625 292.347656 87.15625 294.277344 85.96875 295.460938 L 82.90625 298.523438 C 82.332031 299.097656 81.566406 299.414062 80.753906 299.414062 " fill-opacity="1" fill-rule="nonzero"/><path fill="#000000" d="M 75.574219 282.804688 C 74.964844 282.804688 74.390625 283.039062 73.960938 283.46875 L 70.898438 286.53125 C 70.46875 286.957031 70.230469 287.53125 70.230469 288.136719 C 70.230469 288.746094 70.46875 289.316406 70.898438 289.746094 L 79.144531 297.980469 C 79.574219 298.410156 80.144531 298.644531 80.753906 298.644531 C 81.363281 298.644531 81.933594 298.410156 82.363281 297.980469 L 85.429688 294.921875 C 86.316406 294.035156 86.316406 292.589844 85.429688 291.707031 L 77.183594 283.46875 C 76.753906 283.039062 76.179688 282.804688 75.574219 282.804688 Z M 80.753906 299.414062 C 79.941406 299.414062 79.175781 299.097656 78.601562 298.523438 L 70.355469 290.289062 C 69.78125 289.710938 69.464844 288.949219 69.464844 288.136719 C 69.464844 287.324219 69.78125 286.5625 70.355469 285.988281 L 73.417969 282.929688 C 73.996094 282.355469 74.757812 282.039062 75.574219 282.039062 C 76.386719 282.039062 77.148438 282.355469 77.726562 282.929688 L 85.96875 291.164062 C 87.15625 292.347656 87.15625 294.277344 85.96875 295.460938 L 82.90625 298.523438 C 82.332031 299.097656 81.566406 299.414062 80.753906 299.414062 " fill-opacity="1" fill-rule="nonzero"/><path fill="#000000" d="M 62.128906 298.503906 L 70.375 306.738281 C 71.414062 307.777344 73.097656 307.777344 74.136719 306.738281 L 77.199219 303.679688 C 78.238281 302.640625 78.238281 300.960938 77.199219 299.921875 L 68.953125 291.6875 C 67.914062 290.648438 66.230469 290.648438 65.191406 291.6875 L 62.128906 294.746094 C 61.089844 295.785156 61.089844 297.46875 62.128906 298.503906 " fill-opacity="1" fill-rule="nonzero"/><path fill="#000000" d="M 62.398438 298.234375 L 70.644531 306.46875 C 71.53125 307.355469 72.976562 307.355469 73.867188 306.46875 L 76.929688 303.410156 C 77.816406 302.519531 77.816406 301.078125 76.929688 300.191406 L 68.683594 291.957031 C 67.796875 291.070312 66.351562 291.070312 65.464844 291.957031 L 62.398438 295.015625 C 61.511719 295.902344 61.511719 297.34375 62.398438 298.234375 Z M 72.253906 307.898438 C 71.476562 307.898438 70.695312 307.601562 70.101562 307.007812 L 61.855469 298.777344 C 60.671875 297.589844 60.671875 295.660156 61.855469 294.472656 L 64.921875 291.414062 C 66.109375 290.230469 68.039062 290.230469 69.226562 291.414062 L 77.472656 299.648438 C 78.660156 300.835938 78.660156 302.765625 77.472656 303.949219 L 74.410156 307.007812 C 73.816406 307.601562 73.035156 307.898438 72.253906 307.898438 " fill-opacity="1" fill-rule="nonzero"/><path fill="#000000" d="M 62.398438 298.234375 L 70.644531 306.46875 C 71.53125 307.355469 72.976562 307.355469 73.867188 306.46875 L 76.929688 303.410156 C 77.816406 302.519531 77.816406 301.078125 76.929688 300.191406 L 68.683594 291.957031 C 67.796875 291.070312 66.351562 291.070312 65.464844 291.957031 L 62.398438 295.015625 C 61.511719 295.902344 61.511719 297.34375 62.398438 298.234375 Z M 72.253906 307.898438 C 71.476562 307.898438 70.695312 307.601562 70.101562 307.007812 L 61.855469 298.777344 C 60.671875 297.589844 60.671875 295.660156 61.855469 294.472656 L 64.921875 291.414062 C 66.109375 290.230469 68.039062 290.230469 69.226562 291.414062 L 77.472656 299.648438 C 78.660156 300.835938 78.660156 302.765625 77.472656 303.949219 L 74.410156 307.007812 C 73.816406 307.601562 73.035156 307.898438 72.253906 307.898438 " fill-opacity="1" fill-rule="nonzero"/><path fill="#000000" d="M 144.511719 204.816406 C 144.453125 204.816406 144.398438 204.804688 144.34375 204.777344 C 140.523438 202.941406 136.449219 201.679688 132.238281 201.03125 C 132.03125 201 131.886719 200.804688 131.917969 200.59375 C 131.949219 200.386719 132.148438 200.242188 132.355469 200.273438 C 136.640625 200.933594 140.789062 202.214844 144.675781 204.089844 C 144.867188 204.179688 144.949219 204.410156 144.855469 204.601562 C 144.789062 204.738281 144.652344 204.816406 144.511719 204.816406 " fill-opacity="1" fill-rule="nonzero"/><path fill="#000000" d="M 125.675781 287.144531 C 113.988281 287.144531 103.003906 282.597656 94.738281 274.347656 C 88.539062 268.15625 84.386719 260.359375 82.726562 251.796875 C 82.6875 251.589844 82.820312 251.386719 83.03125 251.351562 C 83.238281 251.308594 83.4375 251.445312 83.480469 251.652344 C 85.109375 260.0625 89.191406 267.722656 95.28125 273.804688 C 103.398438 281.914062 114.195312 286.375 125.675781 286.375 C 137.15625 286.375 147.949219 281.914062 156.066406 273.804688 C 172.824219 257.070312 172.824219 229.839844 156.066406 213.101562 C 155.917969 212.953125 155.917969 212.710938 156.066406 212.5625 C 156.214844 212.410156 156.460938 212.410156 156.609375 212.5625 C 173.664062 229.59375 173.664062 257.3125 156.609375 274.347656 C 148.34375 282.597656 137.359375 287.144531 125.675781 287.144531 " fill-opacity="1" fill-rule="nonzero"/><path fill="#000000" d="M 130.027344 227.277344 C 127.164062 227.277344 124.835938 229.601562 124.835938 232.460938 L 124.835938 250.300781 C 124.835938 253.15625 127.164062 255.484375 130.027344 255.484375 L 172.710938 255.484375 C 175.105469 246.121094 174.675781 236.378906 171.472656 227.277344 Z M 173.003906 256.25 L 130.027344 256.25 C 126.738281 256.25 124.066406 253.582031 124.066406 250.300781 L 124.066406 232.460938 C 124.066406 229.179688 126.738281 226.511719 130.027344 226.511719 L 171.742188 226.511719 C 171.902344 226.511719 172.050781 226.613281 172.101562 226.761719 C 175.480469 236.179688 175.917969 246.277344 173.378906 255.964844 C 173.332031 256.132812 173.179688 256.25 173.003906 256.25 " fill-opacity="1" fill-rule="nonzero"/><path fill="#000000" d="M 334.710938 135.425781 C 334.710938 179.425781 298.996094 215.09375 254.9375 215.09375 C 210.878906 215.09375 175.164062 179.425781 175.164062 135.425781 C 175.164062 91.429688 210.878906 55.761719 254.9375 55.761719 C 298.996094 55.761719 334.710938 91.429688 334.710938 135.425781 " fill-opacity="1" fill-rule="nonzero"/><path fill="#000000" d="M 254.9375 56.144531 C 211.160156 56.144531 175.546875 91.710938 175.546875 135.429688 C 175.546875 179.144531 211.160156 214.710938 254.9375 214.710938 C 298.714844 214.710938 334.324219 179.144531 334.324219 135.429688 C 334.324219 91.710938 298.714844 56.144531 254.9375 56.144531 Z M 254.9375 215.476562 C 210.738281 215.476562 174.78125 179.566406 174.78125 135.429688 C 174.78125 91.289062 210.738281 55.378906 254.9375 55.378906 C 299.132812 55.378906 335.09375 91.289062 335.09375 135.429688 C 335.09375 179.566406 299.132812 215.476562 254.9375 215.476562 " fill-opacity="1" fill-rule="nonzero"/><path fill="#ffffff" d="M 324.882812 135.429688 C 324.882812 179.425781 289.167969 215.09375 245.109375 215.09375 C 201.050781 215.09375 165.335938 179.425781 165.335938 135.429688 C 165.335938 91.429688 201.050781 55.761719 245.109375 55.761719 C 289.167969 55.761719 324.882812 91.429688 324.882812 135.429688 " fill-opacity="1" fill-rule="nonzero"/><path fill="#000000" d="M 245.109375 56.144531 C 201.335938 56.144531 165.722656 91.710938 165.722656 135.425781 C 165.722656 179.144531 201.335938 214.710938 245.109375 214.710938 C 288.886719 214.710938 324.5 179.144531 324.5 135.425781 C 324.5 91.710938 288.886719 56.144531 245.109375 56.144531 Z M 245.109375 215.476562 C 200.910156 215.476562 164.953125 179.566406 164.953125 135.425781 C 164.953125 91.289062 200.910156 55.378906 245.109375 55.378906 C 289.308594 55.378906 325.269531 91.289062 325.269531 135.425781 C 325.269531 179.566406 289.308594 215.476562 245.109375 215.476562 " fill-opacity="1" fill-rule="nonzero"/><path fill="#ffffff" d="M 298.292969 135.425781 C 298.292969 164.757812 274.480469 188.539062 245.109375 188.539062 C 215.738281 188.539062 191.929688 164.757812 191.929688 135.425781 C 191.929688 106.09375 215.738281 82.316406 245.109375 82.316406 C 274.480469 82.316406 298.292969 106.09375 298.292969 135.425781 " fill-opacity="1" fill-rule="nonzero"/><path fill="#000000" d="M 245.109375 82.699219 C 215.996094 82.699219 192.3125 106.355469 192.3125 135.425781 C 192.3125 164.5 215.996094 188.15625 245.109375 188.15625 C 274.222656 188.15625 297.910156 164.5 297.910156 135.425781 C 297.910156 106.355469 274.222656 82.699219 245.109375 82.699219 Z M 245.109375 188.921875 C 215.574219 188.921875 191.542969 164.921875 191.542969 135.425781 C 191.542969 105.929688 215.574219 81.933594 245.109375 81.933594 C 274.648438 81.933594 298.675781 105.929688 298.675781 135.425781 C 298.675781 164.921875 274.648438 188.921875 245.109375 188.921875 " fill-opacity="1" fill-rule="nonzero"/><path fill="#000000" d="M 271.699219 135.429688 C 271.699219 150.097656 259.792969 161.984375 245.109375 161.984375 C 230.421875 161.984375 218.515625 150.097656 218.515625 135.429688 C 218.515625 120.761719 230.421875 108.875 245.109375 108.875 C 259.792969 108.875 271.699219 120.761719 271.699219 135.429688 " fill-opacity="1" fill-rule="nonzero"/><path fill="#000000" d="M 245.109375 109.257812 C 230.660156 109.257812 218.902344 121 218.902344 135.429688 C 218.902344 149.859375 230.660156 161.601562 245.109375 161.601562 C 259.5625 161.601562 271.316406 149.859375 271.316406 135.429688 C 271.316406 121 259.5625 109.257812 245.109375 109.257812 Z M 245.109375 162.367188 C 230.234375 162.367188 218.132812 150.28125 218.132812 135.429688 C 218.132812 120.574219 230.234375 108.488281 245.109375 108.488281 C 259.984375 108.488281 272.082031 120.574219 272.082031 135.429688 C 272.082031 150.28125 259.984375 162.367188 245.109375 162.367188 " fill-opacity="1" fill-rule="nonzero"/><path fill="#ffffff" d="M 244.257812 136.386719 L 257.933594 121.089844 L 259.976562 123.132812 L 244.65625 136.785156 C 244.394531 137.019531 244.023438 136.652344 244.257812 136.386719 " fill-opacity="1" fill-rule="nonzero"/><path fill="#000000" d="M 257.945312 121.648438 L 245.75 135.296875 L 259.417969 123.113281 Z M 244.542969 136.644531 Z M 244.46875 137.242188 C 244.296875 137.242188 244.128906 137.175781 244 137.042969 C 243.746094 136.792969 243.730469 136.398438 243.972656 136.132812 L 257.644531 120.832031 C 257.714844 120.753906 257.816406 120.707031 257.921875 120.707031 C 258.027344 120.699219 258.128906 120.742188 258.203125 120.816406 L 260.246094 122.859375 C 260.324219 122.933594 260.363281 123.039062 260.359375 123.140625 C 260.355469 123.246094 260.308594 123.347656 260.230469 123.417969 L 244.910156 137.070312 C 244.78125 137.183594 244.625 137.242188 244.46875 137.242188 " fill-opacity="1" fill-rule="nonzero"/><path fill="#ffffff" d="M 258.011719 123.242188 L 257.820312 123.050781 C 257.078125 122.3125 257.078125 121.117188 257.820312 120.378906 L 263.546875 114.660156 L 266.414062 117.523438 L 260.683594 123.242188 C 259.945312 123.980469 258.75 123.980469 258.011719 123.242188 " fill-opacity="1" fill-rule="nonzero"/><path fill="#000000" d="M 263.546875 115.199219 L 258.089844 120.648438 C 257.503906 121.238281 257.503906 122.191406 258.089844 122.78125 L 258.28125 122.972656 C 258.851562 123.539062 259.84375 123.539062 260.414062 122.972656 L 265.871094 117.523438 Z M 259.351562 124.179688 C 258.742188 124.179688 258.167969 123.941406 257.742188 123.511719 L 257.546875 123.320312 C 257.117188 122.890625 256.882812 122.320312 256.882812 121.714844 C 256.882812 121.109375 257.117188 120.539062 257.546875 120.109375 L 263.277344 114.386719 C 263.421875 114.242188 263.675781 114.242188 263.816406 114.386719 L 266.6875 117.25 C 266.835938 117.398438 266.835938 117.644531 266.6875 117.792969 L 260.957031 123.511719 C 260.527344 123.941406 259.957031 124.179688 259.351562 124.179688 " fill-opacity="1" fill-rule="nonzero"/><path fill="#ffffff" d="M 262.175781 119.222656 L 261.84375 118.894531 C 260.578125 117.628906 260.578125 115.578125 261.84375 114.3125 L 327.847656 48.402344 C 329.113281 47.136719 331.164062 47.136719 332.433594 48.402344 L 332.761719 48.730469 C 334.027344 49.992188 334.027344 52.042969 332.761719 53.308594 L 266.761719 119.222656 C 265.496094 120.484375 263.441406 120.484375 262.175781 119.222656 " fill-opacity="1" fill-rule="nonzero"/><path fill="#000000" d="M 262.445312 118.949219 C 263.5625 120.0625 265.375 120.0625 266.492188 118.949219 L 332.492188 53.035156 C 333.03125 52.5 333.328125 51.78125 333.328125 51.015625 C 333.328125 50.253906 333.03125 49.539062 332.492188 49 L 332.164062 48.671875 C 331.046875 47.554688 329.234375 47.554688 328.117188 48.671875 L 262.117188 114.582031 C 261.003906 115.695312 261.003906 117.507812 262.117188 118.621094 Z M 264.46875 120.550781 C 263.539062 120.550781 262.609375 120.195312 261.902344 119.492188 L 261.574219 119.164062 C 260.160156 117.75 260.160156 115.453125 261.574219 114.039062 L 327.574219 48.128906 C 328.992188 46.714844 331.292969 46.714844 332.707031 48.128906 L 333.035156 48.457031 C 333.722656 49.140625 334.097656 50.050781 334.097656 51.015625 C 334.097656 51.984375 333.722656 52.894531 333.035156 53.578125 L 267.03125 119.492188 C 266.328125 120.195312 265.398438 120.550781 264.46875 120.550781 " fill-opacity="1" fill-rule="nonzero"/><path fill="#ffffff" d="M 308.492188 67.730469 L 306.457031 57.859375 C 305.65625 53.96875 306.867188 49.9375 309.679688 47.128906 L 322.277344 34.546875 C 322.734375 34.089844 323.519531 34.324219 323.648438 34.957031 L 326.664062 49.582031 L 308.492188 67.730469 " fill-opacity="1" fill-rule="nonzero"/><g clip-path="url(#8649cda0fc)"><path fill="#000000" d="M 322.851562 34.691406 C 322.738281 34.691406 322.632812 34.734375 322.546875 34.816406 L 309.949219 47.398438 C 307.21875 50.125 306.054688 54.007812 306.835938 57.78125 L 308.722656 66.957031 L 326.246094 49.453125 L 323.277344 35.035156 C 323.242188 34.875 323.132812 34.757812 322.976562 34.710938 C 322.933594 34.695312 322.890625 34.691406 322.851562 34.691406 Z M 308.492188 68.113281 C 308.453125 68.113281 308.417969 68.105469 308.382812 68.097656 C 308.246094 68.054688 308.144531 67.945312 308.117188 67.804688 L 306.082031 57.933594 C 305.25 53.90625 306.496094 49.765625 309.40625 46.855469 L 322.003906 34.273438 C 322.316406 33.960938 322.773438 33.847656 323.199219 33.972656 C 323.621094 34.101562 323.9375 34.449219 324.027344 34.878906 L 327.042969 49.503906 C 327.066406 49.628906 327.03125 49.761719 326.9375 49.851562 L 308.765625 68 C 308.691406 68.070312 308.59375 68.113281 308.492188 68.113281 " fill-opacity="1" fill-rule="nonzero"/></g><path fill="#ffffff" d="M 313.410156 72.636719 L 323.292969 74.667969 C 327.1875 75.46875 331.226562 74.257812 334.039062 71.453125 L 346.636719 58.871094 C 347.09375 58.414062 346.859375 57.628906 346.222656 57.5 L 331.582031 54.488281 L 313.410156 72.636719 " fill-opacity="1" fill-rule="nonzero"/><g clip-path="url(#c4ff391768)"><path fill="#000000" d="M 314.179688 72.40625 L 323.367188 74.292969 C 327.144531 75.074219 331.035156 73.910156 333.765625 71.183594 L 346.363281 58.601562 C 346.476562 58.488281 346.515625 58.328125 346.472656 58.175781 C 346.421875 58.019531 346.304688 57.910156 346.144531 57.878906 L 331.703125 54.90625 Z M 325.6875 75.296875 C 324.863281 75.296875 324.035156 75.214844 323.210938 75.046875 L 313.332031 73.011719 C 313.1875 72.984375 313.078125 72.882812 313.039062 72.75 C 313 72.613281 313.035156 72.46875 313.132812 72.367188 L 331.308594 54.21875 C 331.398438 54.128906 331.53125 54.089844 331.65625 54.113281 L 346.296875 57.125 C 346.730469 57.214844 347.078125 57.53125 347.207031 57.953125 C 347.332031 58.375 347.21875 58.832031 346.90625 59.144531 L 334.304688 71.726562 C 331.988281 74.039062 328.890625 75.296875 325.6875 75.296875 " fill-opacity="1" fill-rule="nonzero"/></g><path fill="#ffffff" d="M 329.527344 59.609375 L 341.429688 61.832031 L 329.527344 59.609375 " fill-opacity="1" fill-rule="nonzero"/><path fill="#000000" d="M 341.429688 62.214844 C 341.40625 62.214844 341.382812 62.210938 341.359375 62.207031 L 329.457031 59.984375 C 329.25 59.945312 329.109375 59.742188 329.148438 59.535156 C 329.1875 59.328125 329.386719 59.195312 329.597656 59.230469 L 341.5 61.453125 C 341.710938 61.492188 341.847656 61.691406 341.808594 61.902344 C 341.773438 62.085938 341.613281 62.214844 341.429688 62.214844 " fill-opacity="1" fill-rule="nonzero"/><path fill="#ffffff" d="M 324.6875 64.441406 L 336.59375 66.664062 L 324.6875 64.441406 " fill-opacity="1" fill-rule="nonzero"/><path fill="#000000" d="M 336.589844 67.046875 C 336.566406 67.046875 336.542969 67.046875 336.519531 67.039062 L 324.617188 64.816406 C 324.410156 64.777344 324.269531 64.578125 324.308594 64.371094 C 324.347656 64.160156 324.546875 64.027344 324.757812 64.0625 L 336.660156 66.289062 C 336.871094 66.324219 337.003906 66.523438 336.964844 66.734375 C 336.933594 66.921875 336.773438 67.046875 336.589844 67.046875 " fill-opacity="1" fill-rule="nonzero"/><path fill="#ffffff" d="M 306.566406 72.109375 L 309.023438 74.5625 L 306.566406 72.109375 " fill-opacity="1" fill-rule="nonzero"/><path fill="#000000" d="M 309.023438 74.945312 C 308.925781 74.945312 308.824219 74.90625 308.75 74.832031 L 306.292969 72.378906 C 306.144531 72.230469 306.144531 71.988281 306.292969 71.835938 C 306.445312 71.6875 306.6875 71.6875 306.835938 71.835938 L 309.292969 74.289062 C 309.445312 74.441406 309.445312 74.683594 309.292969 74.832031 C 309.21875 74.90625 309.121094 74.945312 309.023438 74.945312 " fill-opacity="1" fill-rule="nonzero"/><path fill="#ffffff" d="M 309.40625 69.273438 L 311.863281 71.722656 L 309.40625 69.273438 " fill-opacity="1" fill-rule="nonzero"/><path fill="#000000" d="M 311.863281 72.105469 C 311.765625 72.105469 311.667969 72.066406 311.59375 71.992188 L 309.136719 69.542969 C 308.988281 69.390625 308.988281 69.148438 309.136719 69 C 309.285156 68.851562 309.53125 68.851562 309.679688 69 L 312.132812 71.453125 C 312.285156 71.601562 312.285156 71.84375 312.132812 71.992188 C 312.0625 72.066406 311.960938 72.105469 311.863281 72.105469 " fill-opacity="1" fill-rule="nonzero"/><path fill="#ffffff" d="M 312.25 66.433594 L 314.707031 68.886719 L 312.25 66.433594 " fill-opacity="1" fill-rule="nonzero"/><path fill="#000000" d="M 314.703125 69.269531 C 314.605469 69.269531 314.507812 69.234375 314.433594 69.15625 L 311.976562 66.707031 C 311.828125 66.554688 311.828125 66.3125 311.976562 66.164062 C 312.125 66.011719 312.371094 66.011719 312.519531 66.164062 L 314.976562 68.613281 C 315.125 68.765625 315.125 69.007812 314.976562 69.15625 C 314.902344 69.234375 314.800781 69.269531 314.703125 69.269531 " fill-opacity="1" fill-rule="nonzero"/><path fill="#000000" d="M 163.277344 75.804688 C 159.324219 82.535156 150.058594 83.859375 147.976562 84.09375 C 139.527344 85.039062 133.292969 80.980469 131.605469 79.800781 C 128.679688 81.597656 121.585938 85.378906 112.332031 84.667969 C 105.015625 84.109375 92.691406 80.460938 90.300781 71.917969 C 87.441406 61.6875 100.328125 49.8125 111.382812 45.621094 C 120.65625 42.101562 134.789062 41.652344 141.554688 48.773438 C 144.042969 51.390625 144.425781 53.859375 147.359375 54.714844 C 152.628906 56.246094 156.5 49.773438 163.328125 50.105469 C 167.421875 50.300781 170.621094 52.851562 172.597656 54.832031 C 177.636719 56.496094 180.722656 59.839844 180.347656 62.523438 C 179.953125 65.324219 175.855469 67.019531 175.058594 67.351562 C 170.910156 69.070312 168.707031 67.335938 166.246094 69.136719 C 164.066406 70.734375 164.949219 72.953125 163.277344 75.804688 " fill-opacity="1" fill-rule="nonzero"/><path fill="#ffffff" d="M 157.859375 82.726562 C 157.859375 82.726562 178.59375 89.339844 188.671875 82.726562 C 193.410156 79.613281 211.050781 57.648438 214.875 55.621094 C 217.207031 54.382812 220.820312 52.53125 223.296875 51.265625 C 225.023438 50.382812 227.042969 50.289062 228.84375 51.003906 L 239.148438 55.097656 C 239.148438 55.097656 236.148438 57.5 231.261719 56.539062 C 228.109375 55.921875 224.851562 56.238281 221.945312 57.609375 L 221.75 57.703125 L 231.007812 60.578125 C 231.007812 60.578125 229.605469 62.914062 224.644531 62.015625 C 222.023438 61.542969 218.867188 62.132812 216.46875 62.792969 L 216.300781 62.878906 C 216.300781 62.878906 207.453125 87.414062 194.476562 95.089844 C 175.59375 106.261719 155.75 99.238281 155.75 99.238281 L 157.859375 82.726562 " fill-opacity="1" fill-rule="nonzero"/><path fill="#000000" d="M 156.171875 98.972656 C 158.695312 99.769531 177.007812 104.980469 194.277344 94.761719 C 206.992188 87.238281 215.851562 62.996094 215.941406 62.75 C 215.972656 62.660156 216.039062 62.585938 216.125 62.539062 L 216.292969 62.453125 C 216.316406 62.441406 216.34375 62.429688 216.367188 62.421875 C 218.65625 61.789062 221.964844 61.144531 224.710938 61.640625 C 228.078125 62.25 229.6875 61.335938 230.324219 60.769531 L 221.636719 58.070312 C 221.484375 58.023438 221.375 57.886719 221.367188 57.730469 C 221.355469 57.574219 221.441406 57.421875 221.585938 57.359375 L 221.785156 57.265625 C 224.695312 55.886719 228 55.507812 231.335938 56.164062 C 234.777344 56.84375 237.246094 55.789062 238.316406 55.179688 L 228.703125 51.359375 C 227.003906 50.683594 225.097656 50.773438 223.46875 51.605469 C 220.886719 52.925781 217.332031 54.75 215.058594 55.957031 C 213.195312 56.945312 207.652344 63.144531 202.296875 69.140625 C 196.882812 75.203125 191.277344 81.472656 188.882812 83.046875 C 179.460938 89.226562 161.316406 84.167969 158.179688 83.226562 Z M 170.628906 101.769531 C 161.925781 101.769531 155.734375 99.640625 155.621094 99.601562 C 155.453125 99.539062 155.347656 99.371094 155.371094 99.191406 L 157.476562 82.675781 C 157.492188 82.5625 157.554688 82.460938 157.652344 82.402344 C 157.746094 82.339844 157.867188 82.324219 157.972656 82.359375 C 158.179688 82.425781 178.652344 88.84375 188.460938 82.402344 C 190.773438 80.886719 196.34375 74.65625 201.726562 68.628906 C 207.375 62.308594 212.714844 56.335938 214.699219 55.28125 C 216.976562 54.070312 220.535156 52.242188 223.121094 50.925781 C 224.945312 49.992188 227.082031 49.894531 228.988281 50.648438 L 239.289062 54.742188 C 239.417969 54.789062 239.507812 54.90625 239.527344 55.039062 C 239.546875 55.175781 239.496094 55.3125 239.386719 55.394531 C 239.261719 55.5 236.191406 57.898438 231.191406 56.917969 C 228.285156 56.34375 225.417969 56.59375 222.835938 57.640625 L 231.121094 60.210938 C 231.230469 60.25 231.320312 60.332031 231.363281 60.441406 C 231.40625 60.554688 231.394531 60.675781 231.335938 60.777344 C 231.269531 60.882812 229.738281 63.328125 224.574219 62.394531 C 221.984375 61.925781 218.820312 62.546875 216.613281 63.148438 C 215.859375 65.175781 207.105469 88.066406 194.671875 95.421875 C 186.273438 100.386719 177.636719 101.769531 170.628906 101.769531 " fill-opacity="1" fill-rule="nonzero"/><path fill="#000000" d="M 114.082031 123.851562 C 114.082031 123.851562 132.117188 136.078125 157.28125 132.480469 C 157.28125 132.480469 153.878906 125.917969 148.066406 123.5625 C 142.25 121.207031 114.082031 123.851562 114.082031 123.851562 " fill-opacity="1" fill-rule="nonzero"/><path fill="#000000" d="M 89.265625 154.699219 C 90.386719 127.269531 106.21875 117.160156 106.21875 117.160156 L 138.851562 125.289062 L 152.3125 154.699219 L 89.265625 154.699219 " fill-opacity="1" fill-rule="nonzero"/><path fill="#ffffff" d="M 157.152344 80.148438 L 140 71.589844 C 135.648438 69.421875 130.386719 70.402344 127.121094 74 C 119.636719 82.253906 106.742188 98.203125 100.257812 116.363281 C 100.257812 116.363281 111.917969 131.210938 127.332031 130.179688 C 142.746094 129.144531 151.832031 128.152344 157.28125 132.476562 C 157.28125 132.476562 161.816406 109.710938 162.734375 89.605469 C 162.914062 85.632812 160.71875 81.929688 157.152344 80.148438 " fill-opacity="1" fill-rule="nonzero"/><path fill="#000000" d="M 144.078125 128.902344 C 149.746094 128.902344 153.90625 129.59375 157.019531 131.804688 C 157.734375 128.070312 161.527344 107.632812 162.347656 89.589844 C 162.523438 85.777344 160.414062 82.207031 156.980469 80.496094 L 139.824219 71.9375 C 135.644531 69.851562 130.535156 70.808594 127.40625 74.257812 C 120.222656 82.179688 107.222656 98.148438 100.695312 116.289062 C 102.019531 117.894531 113.140625 130.75 127.304688 129.796875 C 128.410156 129.722656 129.480469 129.648438 130.523438 129.578125 C 135.808594 129.210938 140.28125 128.902344 144.078125 128.902344 Z M 157.28125 132.863281 C 157.195312 132.863281 157.109375 132.835938 157.042969 132.78125 C 152.097656 128.855469 144 129.414062 130.578125 130.339844 C 129.535156 130.414062 128.460938 130.488281 127.355469 130.5625 C 111.921875 131.59375 100.074219 116.75 99.957031 116.601562 C 99.875 116.496094 99.855469 116.359375 99.898438 116.234375 C 106.449219 97.882812 119.585938 81.738281 126.835938 73.746094 C 130.199219 70.039062 135.683594 69.011719 140.167969 71.25 L 157.324219 79.808594 C 161.03125 81.65625 163.300781 85.507812 163.117188 89.625 C 162.207031 109.53125 157.703125 132.328125 157.65625 132.554688 C 157.628906 132.6875 157.539062 132.792969 157.410156 132.839844 C 157.371094 132.855469 157.324219 132.863281 157.28125 132.863281 " fill-opacity="1" fill-rule="nonzero"/><path fill="#000000" d="M 129.832031 126.425781 C 129.820312 126.425781 129.808594 126.425781 129.796875 126.425781 C 129.585938 126.40625 129.429688 126.21875 129.449219 126.007812 C 130.054688 119.539062 132.117188 114.914062 135.574219 112.253906 C 138.25 110.203125 141.113281 109.789062 143.886719 109.390625 C 146.703125 108.988281 149.613281 108.570312 152.511719 106.472656 C 155.570312 104.25 157.761719 100.796875 159.015625 96.199219 C 159.074219 95.992188 159.28125 95.871094 159.488281 95.925781 C 159.691406 95.984375 159.8125 96.195312 159.757812 96.398438 C 158.453125 101.167969 156.167969 104.769531 152.960938 107.089844 C 149.910156 109.304688 146.902344 109.734375 143.996094 110.152344 C 141.199219 110.550781 138.558594 110.929688 136.042969 112.863281 C 132.761719 115.386719 130.796875 119.832031 130.214844 126.082031 C 130.195312 126.28125 130.027344 126.425781 129.832031 126.425781 " fill-opacity="1" fill-rule="nonzero"/><path fill="#ffffff" d="M 102.851562 153.761719 L 139.078125 79.796875 C 140.542969 76.804688 139.3125 73.195312 136.320312 71.71875 C 133.539062 70.347656 130.175781 71.296875 128.519531 73.914062 C 123.6875 81.558594 114.433594 96.957031 112.355469 105.835938 C 109.511719 117.980469 105.382812 123.996094 102.851562 127.867188 C 101.214844 130.363281 99.171875 139.238281 97.925781 145.210938 C 97.296875 148.238281 94.1875 150.0625 91.230469 149.132812 L 91.222656 149.128906 C 88.578125 148.296875 85.695312 148.78125 83.46875 150.433594 L 79.570312 153.328125 C 79.152344 153.640625 79.382812 154.308594 79.90625 154.296875 L 102.851562 153.761719 " fill-opacity="1" fill-rule="nonzero"/><path fill="#000000" d="M 102.851562 153.761719 L 102.855469 153.761719 Z M 88.628906 149.117188 C 86.875 149.117188 85.136719 149.675781 83.699219 150.742188 L 79.800781 153.636719 C 79.722656 153.695312 79.734375 153.769531 79.746094 153.808594 C 79.761719 153.851562 79.804688 153.910156 79.898438 153.914062 L 102.609375 153.382812 L 138.734375 79.628906 C 140.101562 76.832031 138.945312 73.4375 136.152344 72.0625 C 133.539062 70.773438 130.398438 71.660156 128.84375 74.117188 C 123.699219 82.257812 114.765625 97.214844 112.726562 105.921875 C 109.96875 117.707031 106.042969 123.699219 103.445312 127.660156 L 103.171875 128.074219 C 101.957031 129.933594 100.226562 136.046875 98.300781 145.289062 C 97.980469 146.839844 97.007812 148.1875 95.640625 148.988281 C 94.277344 149.789062 92.628906 149.972656 91.117188 149.496094 C 90.304688 149.242188 89.464844 149.117188 88.628906 149.117188 Z M 79.890625 154.679688 C 79.492188 154.679688 79.152344 154.441406 79.019531 154.058594 C 78.886719 153.671875 79.015625 153.265625 79.34375 153.019531 L 83.242188 150.125 C 85.558594 148.40625 88.585938 147.898438 91.335938 148.765625 C 92.648438 149.175781 94.074219 149.015625 95.253906 148.324219 C 96.433594 147.636719 97.273438 146.46875 97.550781 145.132812 C 98.925781 138.527344 100.90625 130.136719 102.53125 127.65625 L 102.800781 127.238281 C 105.371094 123.320312 109.253906 117.402344 111.980469 105.746094 C 114.042969 96.929688 123.023438 81.886719 128.195312 73.707031 C 129.960938 70.914062 133.527344 69.910156 136.492188 71.375 C 139.660156 72.9375 140.976562 76.792969 139.421875 79.964844 L 103.195312 153.933594 C 103.132812 154.058594 103.003906 154.144531 102.859375 154.148438 L 79.917969 154.679688 C 79.90625 154.679688 79.898438 154.679688 79.890625 154.679688 " fill-opacity="1" fill-rule="nonzero"/><path fill="#ffffff" d="M 157.113281 65.835938 C 157.085938 65.808594 155.332031 63.804688 156.296875 62.332031 C 157.261719 60.855469 159.183594 62.8125 159.183594 62.8125 C 159.183594 62.8125 160.808594 60 164.519531 60.101562 C 164.519531 60.101562 166.105469 63.695312 170.152344 63.679688 C 170.152344 63.679688 169.226562 65.78125 167.863281 68.117188 L 167.421875 70.632812 C 167.355469 71.011719 166.929688 71.207031 166.597656 71.011719 C 166.347656 70.867188 166.03125 70.933594 165.855469 71.164062 C 164.851562 72.476562 163.769531 73.578125 162.703125 74.054688 C 161.210938 74.722656 159.875 74.035156 158.871094 72.753906 C 156.503906 75.617188 153.011719 80.488281 154.640625 82.597656 C 154.640625 82.597656 149.316406 84.136719 144.054688 76.910156 L 157.113281 65.835938 " fill-opacity="1" fill-rule="nonzero"/><path fill="#000000" d="M 144.578125 76.96875 C 148.632812 82.355469 152.664062 82.464844 154.039062 82.316406 C 153.070312 79.953125 155.90625 75.742188 158.574219 72.511719 C 158.648438 72.421875 158.753906 72.371094 158.875 72.371094 C 158.992188 72.371094 159.101562 72.429688 159.171875 72.519531 C 159.886719 73.429688 161.050781 74.375 162.542969 73.707031 C 163.441406 73.304688 164.449219 72.371094 165.546875 70.929688 C 165.839844 70.546875 166.378906 70.4375 166.792969 70.683594 C 166.859375 70.722656 166.917969 70.707031 166.945312 70.691406 C 166.976562 70.675781 167.03125 70.644531 167.042969 70.566406 L 167.484375 68.054688 C 167.492188 68.007812 167.507812 67.964844 167.53125 67.925781 C 168.472656 66.316406 169.207031 64.800781 169.5625 64.039062 C 166.320312 63.777344 164.707031 61.257812 164.285156 60.480469 C 161 60.503906 159.527344 62.980469 159.515625 63.003906 C 159.453125 63.109375 159.347656 63.179688 159.230469 63.191406 C 159.109375 63.210938 158.992188 63.167969 158.90625 63.082031 C 158.636719 62.808594 157.800781 62.109375 157.167969 62.167969 C 156.945312 62.191406 156.769531 62.308594 156.617188 62.542969 C 155.816406 63.761719 157.386719 65.566406 157.402344 65.585938 C 157.46875 65.660156 157.503906 65.761719 157.496094 65.867188 C 157.488281 65.96875 157.4375 66.0625 157.359375 66.128906 Z M 153.324219 83.125 C 151.324219 83.125 147.523438 82.324219 143.746094 77.132812 C 143.628906 76.972656 143.652344 76.746094 143.808594 76.617188 L 156.582031 65.785156 C 156.089844 65.113281 155.089844 63.46875 155.972656 62.125 C 156.253906 61.699219 156.640625 61.449219 157.09375 61.40625 C 157.878906 61.324219 158.671875 61.867188 159.113281 62.234375 C 159.734375 61.421875 161.445312 59.632812 164.53125 59.71875 C 164.675781 59.722656 164.8125 59.8125 164.871094 59.945312 C 164.933594 60.082031 166.40625 63.292969 170.121094 63.292969 C 170.128906 63.292969 170.140625 63.292969 170.152344 63.292969 C 170.28125 63.292969 170.402344 63.359375 170.472656 63.46875 C 170.542969 63.574219 170.554688 63.714844 170.503906 63.832031 C 170.492188 63.851562 169.570312 65.945312 168.226562 68.25 L 167.800781 70.699219 C 167.746094 71 167.550781 71.257812 167.269531 71.386719 C 166.992188 71.515625 166.667969 71.5 166.402344 71.34375 C 166.320312 71.296875 166.21875 71.316406 166.160156 71.394531 C 164.984375 72.9375 163.871094 73.953125 162.859375 74.40625 C 161.460938 75.03125 160.0625 74.65625 158.875 73.355469 C 155.324219 77.730469 153.894531 81.003906 154.945312 82.363281 C 155.023438 82.464844 155.046875 82.597656 155.003906 82.714844 C 154.96875 82.839844 154.871094 82.933594 154.75 82.96875 C 154.679688 82.984375 154.160156 83.125 153.324219 83.125 " fill-opacity="1" fill-rule="nonzero"/><path fill="#000000" d="M 158.871094 73.136719 C 158.761719 73.136719 158.652344 73.09375 158.578125 73 C 157.730469 71.996094 157.128906 69.96875 157.101562 69.878906 C 157.042969 69.675781 157.160156 69.464844 157.363281 69.402344 C 157.566406 69.34375 157.78125 69.460938 157.839844 69.664062 C 157.84375 69.683594 158.421875 71.628906 159.164062 72.507812 C 159.300781 72.671875 159.277344 72.914062 159.117188 73.046875 C 159.046875 73.109375 158.957031 73.136719 158.871094 73.136719 " fill-opacity="1" fill-rule="nonzero"/><path fill="#000000" d="M 233.308594 277.132812 C 233.210938 277.132812 233.109375 277.097656 233.035156 277.019531 C 232.886719 276.871094 232.886719 276.628906 233.035156 276.476562 L 241.109375 268.417969 C 241.257812 268.269531 241.5 268.269531 241.652344 268.417969 C 241.800781 268.566406 241.800781 268.8125 241.652344 268.960938 L 233.578125 277.019531 C 233.503906 277.097656 233.40625 277.132812 233.308594 277.132812 " fill-opacity="1" fill-rule="nonzero"/><path fill="#000000" d="M 138.257812 340.292969 C 138.160156 340.292969 138.0625 340.253906 137.988281 340.183594 C 137.835938 340.03125 137.835938 339.789062 137.988281 339.640625 L 177.90625 299.773438 C 180.101562 297.578125 183.023438 296.371094 186.128906 296.371094 C 189.234375 296.371094 192.15625 297.578125 194.351562 299.773438 C 198.585938 304 205.476562 304 209.710938 299.773438 L 223.011719 286.488281 C 223.164062 286.339844 223.40625 286.339844 223.554688 286.488281 C 223.703125 286.636719 223.703125 286.882812 223.554688 287.03125 L 210.253906 300.316406 C 205.71875 304.84375 198.34375 304.84375 193.808594 300.316406 C 191.757812 298.265625 189.03125 297.136719 186.128906 297.136719 C 183.226562 297.136719 180.5 298.265625 178.449219 300.316406 L 138.53125 340.183594 C 138.453125 340.253906 138.355469 340.292969 138.257812 340.292969 " fill-opacity="1" fill-rule="nonzero"/><path fill="#000000" d="M 292.269531 258.820312 C 292.171875 258.820312 292.074219 258.78125 292 258.707031 C 291.847656 258.554688 291.847656 258.316406 292 258.164062 L 331.953125 218.261719 C 332.105469 218.113281 332.347656 218.113281 332.496094 218.261719 C 332.648438 218.410156 332.648438 218.652344 332.496094 218.804688 L 292.542969 258.707031 C 292.464844 258.78125 292.371094 258.820312 292.269531 258.820312 " fill-opacity="1" fill-rule="nonzero"/><path fill="#000000" d="M 40.554688 162.367188 C 40.457031 162.367188 40.359375 162.328125 40.285156 162.253906 C 40.132812 162.105469 40.132812 161.863281 40.285156 161.714844 L 90.390625 111.671875 C 90.539062 111.523438 90.78125 111.523438 90.933594 111.671875 C 91.082031 111.824219 91.082031 112.066406 90.933594 112.21875 L 40.828125 162.253906 C 40.75 162.328125 40.652344 162.367188 40.554688 162.367188 " fill-opacity="1" fill-rule="nonzero"/><path fill="#000000" d="M 58.925781 126.429688 C 58.828125 126.429688 58.730469 126.390625 58.652344 126.316406 C 58.503906 126.164062 58.503906 125.921875 58.652344 125.773438 L 93.738281 90.738281 C 93.890625 90.585938 94.132812 90.585938 94.28125 90.738281 C 94.429688 90.886719 94.429688 91.128906 94.28125 91.277344 L 59.195312 126.316406 C 59.121094 126.390625 59.023438 126.429688 58.925781 126.429688 " fill-opacity="1" fill-rule="nonzero"/><g clip-path="url(#2ad0b3d84e)"><path fill="#000000" d="M 286.222656 52.507812 C 286.125 52.507812 286.027344 52.472656 285.953125 52.398438 C 285.800781 52.25 285.800781 52.003906 285.953125 51.855469 L 303.925781 33.910156 C 304.074219 33.757812 304.316406 33.757812 304.46875 33.910156 C 304.617188 34.058594 304.617188 34.300781 304.46875 34.449219 L 286.496094 52.398438 C 286.421875 52.472656 286.320312 52.507812 286.222656 52.507812 " fill-opacity="1" fill-rule="nonzero"/></g><path fill="#000000" d="M 245.898438 279.136719 C 249.132812 280.246094 251.457031 287.820312 252.972656 290.75 C 253.007812 290.8125 253.042969 290.878906 253.074219 290.941406 C 253.492188 291.734375 254.667969 291.574219 254.859375 290.699219 C 255.667969 287.109375 256.007812 283.5 252.671875 280.652344 C 247.109375 275.90625 246.101562 271.5625 246.402344 266.515625 C 246.597656 263.289062 245.375 260.707031 244.46875 259.265625 C 243.472656 257.6875 242.625 256.019531 241.894531 254.304688 C 228.519531 222.851562 249.949219 231.78125 251.863281 239.351562 C 253.226562 244.75 251.152344 248.03125 255.871094 251.804688 C 261.855469 256.585938 262.339844 261.699219 262.207031 264.054688 C 262.070312 266.414062 259.980469 269.914062 264.632812 274.488281 C 269.28125 279.070312 269.417969 284.320312 267.664062 289.636719 C 265.910156 294.957031 269.214844 299.128906 271.03125 301.285156 C 271.035156 301.289062 271.039062 301.292969 271.042969 301.292969 C 271.386719 301.710938 272.039062 301.609375 272.226562 301.101562 C 273.039062 298.859375 274.753906 297.898438 275.953125 297.378906 C 277.503906 296.707031 279.1875 293.679688 280.46875 289.4375 C 281.75 285.195312 290.171875 281.359375 293.472656 283.175781 C 296.777344 284.992188 298.730469 292.871094 296.035156 296.839844 C 293.339844 300.8125 279.792969 304.515625 280.46875 310.304688 C 281.140625 316.09375 271.167969 319.53125 271.167969 319.53125 C 271.167969 319.53125 270.34375 319.417969 269.503906 318.691406 C 266.882812 320.253906 262.96875 321.789062 260.757812 318.824219 C 260.429688 318.382812 260.097656 317.886719 259.773438 317.34375 C 258.855469 317.289062 257.472656 316.78125 255.402344 315.488281 C 247.617188 310.644531 249.636719 306.605469 248.421875 303.167969 C 247.214844 299.734375 241.957031 294.484375 241.957031 294.484375 C 235.082031 283.679688 242.664062 278.023438 245.898438 279.136719 " fill-opacity="1" fill-rule="nonzero"/><path fill="#000000" d="M 242.257812 294.246094 C 242.734375 294.722656 247.597656 299.664062 248.789062 303.042969 C 249.113281 303.953125 249.210938 304.878906 249.320312 305.859375 C 249.617188 308.570312 249.953125 311.644531 255.605469 315.164062 C 257.429688 316.300781 258.839844 316.902344 259.796875 316.960938 C 259.921875 316.96875 260.039062 317.039062 260.101562 317.144531 C 260.429688 317.683594 260.753906 318.171875 261.066406 318.59375 C 263.066406 321.273438 266.652344 319.945312 269.308594 318.359375 C 269.449219 318.277344 269.632812 318.292969 269.753906 318.398438 C 270.34375 318.910156 270.929688 319.085938 271.140625 319.132812 C 272.144531 318.765625 280.683594 315.472656 280.089844 310.351562 C 279.648438 306.546875 284.773438 303.671875 289.296875 301.136719 C 292.089844 299.570312 294.726562 298.089844 295.71875 296.625 C 296.941406 294.824219 297.257812 291.855469 296.539062 288.878906 C 295.929688 286.332031 294.679688 284.277344 293.292969 283.511719 C 292.019531 282.8125 289.675781 283.011719 287.167969 284.035156 C 283.988281 285.328125 281.441406 287.542969 280.839844 289.546875 C 279.484375 294.03125 277.757812 297.011719 276.105469 297.730469 C 274.960938 298.226562 273.351562 299.132812 272.585938 301.234375 C 272.457031 301.597656 272.152344 301.851562 271.769531 301.917969 C 271.382812 301.988281 271.003906 301.84375 270.75 301.542969 C 269.148438 299.648438 265.417969 295.230469 267.300781 289.519531 C 269.316406 283.40625 268.382812 278.71875 264.363281 274.761719 C 260.492188 270.949219 261.125 267.808594 261.585938 265.515625 C 261.699219 264.980469 261.800781 264.472656 261.824219 264.035156 C 261.96875 261.539062 261.355469 256.671875 255.632812 252.101562 C 252.339844 249.46875 252.21875 246.988281 252.074219 244.117188 C 252.007812 242.742188 251.933594 241.1875 251.492188 239.441406 C 250.78125 236.628906 247.105469 233.460938 243.628906 232.667969 C 242.265625 232.355469 240.382812 232.292969 239.148438 233.761719 C 237.769531 235.40625 236.335938 240.246094 242.25 254.15625 C 243 255.925781 243.859375 257.574219 244.792969 259.058594 C 245.8125 260.675781 246.984375 263.285156 246.789062 266.535156 C 246.492188 271.4375 247.425781 275.667969 252.921875 280.359375 C 256.527344 283.4375 256.007812 287.351562 255.238281 290.785156 C 255.113281 291.339844 254.667969 291.75 254.101562 291.824219 C 253.542969 291.902344 253.007812 291.625 252.738281 291.121094 L 252.636719 290.925781 C 252.261719 290.207031 251.855469 289.242188 251.386719 288.128906 C 249.984375 284.820312 248.066406 280.285156 245.773438 279.496094 C 244.621094 279.101562 242.589844 279.695312 241.105469 281.574219 C 239.957031 283.027344 237.773438 287.167969 242.257812 294.246094 Z M 264.1875 320.882812 C 262.632812 320.882812 261.363281 320.269531 260.453125 319.050781 C 260.152344 318.652344 259.851562 318.203125 259.546875 317.707031 C 258.464844 317.582031 257.042969 316.960938 255.199219 315.816406 C 249.230469 312.097656 248.871094 308.828125 248.558594 305.945312 C 248.457031 305.007812 248.355469 304.125 248.0625 303.296875 C 246.894531 299.984375 241.738281 294.808594 241.683594 294.757812 C 241.667969 294.734375 241.648438 294.714844 241.632812 294.691406 C 236.855469 287.179688 239.25 282.683594 240.5 281.101562 C 242 279.207031 244.375 278.203125 246.027344 278.773438 C 248.644531 279.671875 250.554688 284.195312 252.089844 287.832031 C 252.558594 288.929688 252.957031 289.878906 253.316406 290.574219 L 253.414062 290.761719 C 253.589844 291.089844 253.910156 291.078125 254 291.0625 C 254.09375 291.050781 254.40625 290.980469 254.488281 290.617188 C 255.207031 287.402344 255.703125 283.742188 252.421875 280.941406 C 246.347656 275.753906 245.753906 270.929688 246.023438 266.488281 C 246.203125 263.441406 245.101562 260.988281 244.144531 259.46875 C 243.1875 257.949219 242.3125 256.261719 241.542969 254.453125 C 235.773438 240.886719 236.734375 235.445312 238.5625 233.269531 C 239.71875 231.890625 241.578125 231.410156 243.800781 231.917969 C 247.589844 232.785156 251.449219 236.144531 252.234375 239.253906 C 252.695312 241.074219 252.773438 242.671875 252.84375 244.078125 C 252.980469 246.875 253.089844 249.085938 256.113281 251.503906 C 262.101562 256.289062 262.742188 261.4375 262.59375 264.078125 C 262.5625 264.574219 262.453125 265.105469 262.339844 265.667969 C 261.886719 267.90625 261.324219 270.691406 264.90625 274.21875 C 269.09375 278.34375 270.117188 283.425781 268.03125 289.757812 C 266.28125 295.0625 269.820312 299.25 271.332031 301.039062 C 271.449219 301.179688 271.585938 301.175781 271.640625 301.164062 C 271.691406 301.15625 271.8125 301.117188 271.867188 300.96875 C 272.730469 298.59375 274.527344 297.582031 275.800781 297.027344 C 277.203125 296.417969 278.851562 293.46875 280.101562 289.324219 C 280.925781 286.597656 284.265625 284.386719 286.878906 283.324219 C 289.636719 282.199219 292.171875 282.019531 293.664062 282.839844 C 295.261719 283.71875 296.613281 285.910156 297.285156 288.699219 C 298.0625 291.929688 297.714844 295.050781 296.355469 297.054688 C 295.261719 298.667969 292.546875 300.191406 289.671875 301.804688 C 285.355469 304.222656 280.46875 306.964844 280.851562 310.261719 C 281.550781 316.289062 271.714844 319.746094 271.296875 319.890625 C 271.238281 319.910156 271.179688 319.917969 271.121094 319.910156 C 271.085938 319.902344 270.308594 319.792969 269.46875 319.15625 C 267.484375 320.304688 265.703125 320.882812 264.1875 320.882812 " fill-opacity="1" fill-rule="nonzero"/><path fill="#ffffff" d="M 264.796875 315.496094 C 264.796875 315.496094 264.792969 315.496094 264.792969 315.496094 C 264.578125 315.492188 264.410156 315.316406 264.414062 315.105469 C 265.035156 276.386719 244.773438 241.503906 244.570312 241.160156 C 244.460938 240.976562 244.523438 240.742188 244.707031 240.636719 C 244.890625 240.527344 245.125 240.589844 245.230469 240.769531 C 245.4375 241.121094 265.808594 276.179688 265.183594 315.117188 C 265.179688 315.328125 265.007812 315.496094 264.796875 315.496094 " fill-opacity="1" fill-rule="nonzero"/><path fill="#ffffff" d="M 272.695312 316.125 C 272.675781 316.125 272.652344 316.125 272.632812 316.121094 C 272.421875 316.082031 272.28125 315.886719 272.316406 315.675781 C 275.3125 298.511719 292.84375 287.289062 293.019531 287.179688 C 293.203125 287.066406 293.4375 287.121094 293.550781 287.296875 C 293.664062 287.476562 293.609375 287.714844 293.429688 287.828125 C 293.253906 287.9375 276.011719 298.980469 273.074219 315.808594 C 273.042969 315.996094 272.878906 316.125 272.695312 316.125 " fill-opacity="1" fill-rule="nonzero"/><path fill="#ffffff" d="M 260.535156 315.019531 C 260.367188 315.019531 260.210938 314.910156 260.164062 314.738281 C 256.90625 302.957031 247.683594 290.222656 247.59375 290.097656 C 247.46875 289.925781 247.503906 289.683594 247.675781 289.5625 C 247.847656 289.4375 248.089844 289.472656 248.210938 289.644531 C 248.304688 289.773438 257.609375 302.617188 260.90625 314.535156 C 260.960938 314.738281 260.84375 314.949219 260.636719 315.007812 C 260.605469 315.015625 260.570312 315.019531 260.535156 315.019531 " fill-opacity="1" fill-rule="nonzero"/><path fill="#ffffff" d="M 262.710938 291.460938 C 262.609375 291.460938 262.507812 291.421875 262.429688 291.34375 C 259.421875 288.167969 257.621094 283.539062 257.546875 283.34375 C 257.46875 283.144531 257.566406 282.921875 257.765625 282.847656 C 257.964844 282.773438 258.183594 282.871094 258.261719 283.066406 C 258.28125 283.113281 260.085938 287.75 262.988281 290.816406 C 263.132812 290.96875 263.128906 291.210938 262.972656 291.359375 C 262.902344 291.429688 262.804688 291.460938 262.710938 291.460938 " fill-opacity="1" fill-rule="nonzero"/><path fill="#ffffff" d="M 263.34375 296.511719 C 263.269531 296.511719 263.199219 296.492188 263.136719 296.449219 C 259.351562 294.007812 257.875 289.855469 257.816406 289.679688 C 257.746094 289.480469 257.851562 289.261719 258.050781 289.191406 C 258.253906 289.125 258.46875 289.226562 258.539062 289.425781 C 258.554688 289.46875 259.996094 293.507812 263.550781 295.804688 C 263.730469 295.921875 263.78125 296.15625 263.664062 296.335938 C 263.59375 296.449219 263.46875 296.511719 263.34375 296.511719 " fill-opacity="1" fill-rule="nonzero"/><path fill="#ffffff" d="M 258.078125 308.359375 C 258.035156 308.359375 257.992188 308.351562 257.945312 308.335938 C 254.992188 307.253906 250.605469 301.101562 250.417969 300.84375 C 250.296875 300.671875 250.335938 300.429688 250.507812 300.308594 C 250.683594 300.183594 250.921875 300.226562 251.046875 300.398438 C 251.089844 300.460938 255.480469 306.617188 258.214844 307.617188 C 258.410156 307.691406 258.511719 307.910156 258.441406 308.109375 C 258.382812 308.265625 258.234375 308.359375 258.078125 308.359375 " fill-opacity="1" fill-rule="nonzero"/><path fill="#ffffff" d="M 285.328125 294.199219 C 285.136719 294.199219 284.972656 294.054688 284.945312 293.859375 C 284.386719 289.300781 287.1875 286.078125 287.308594 285.945312 C 287.449219 285.785156 287.691406 285.769531 287.847656 285.910156 C 288.007812 286.050781 288.023438 286.292969 287.882812 286.453125 C 287.855469 286.484375 285.191406 289.558594 285.707031 293.765625 C 285.734375 293.976562 285.585938 294.167969 285.375 294.195312 C 285.359375 294.195312 285.34375 294.199219 285.328125 294.199219 " fill-opacity="1" fill-rule="nonzero"/><path fill="#ffffff" d="M 276.851562 305.1875 C 276.703125 305.1875 276.5625 305.097656 276.496094 304.949219 C 276.417969 304.753906 276.507812 304.53125 276.707031 304.449219 C 281.4375 302.488281 286.480469 298.285156 286.53125 298.242188 C 286.695312 298.105469 286.933594 298.125 287.074219 298.289062 C 287.210938 298.449219 287.1875 298.691406 287.027344 298.828125 C 286.972656 298.871094 281.839844 303.152344 277 305.15625 C 276.953125 305.179688 276.902344 305.1875 276.851562 305.1875 " fill-opacity="1" fill-rule="nonzero"/><path fill="#ffffff" d="M 256.546875 267.46875 C 256.496094 267.46875 256.445312 267.460938 256.398438 267.441406 C 256.203125 267.355469 256.109375 267.132812 256.191406 266.9375 C 257.847656 262.984375 256.722656 257.761719 256.710938 257.707031 C 256.664062 257.5 256.796875 257.296875 257.003906 257.25 C 257.210938 257.203125 257.414062 257.335938 257.460938 257.542969 C 257.511719 257.765625 258.648438 263.058594 256.898438 267.234375 C 256.835938 267.382812 256.695312 267.46875 256.546875 267.46875 " fill-opacity="1" fill-rule="nonzero"/><path fill="#ffffff" d="M 262.429688 340.535156 L 268.941406 340.535156 C 276.144531 340.535156 281.984375 334.699219 281.984375 327.503906 L 281.984375 315.339844 L 249.386719 315.339844 L 249.386719 327.503906 C 249.386719 334.699219 255.226562 340.535156 262.429688 340.535156 " fill-opacity="1" fill-rule="nonzero"/><path fill="#000000" d="M 249.769531 315.722656 L 249.769531 327.503906 C 249.769531 334.480469 255.449219 340.148438 262.429688 340.148438 L 268.941406 340.148438 C 275.921875 340.148438 281.601562 334.480469 281.601562 327.503906 L 281.601562 315.722656 Z M 268.941406 340.917969 L 262.429688 340.917969 C 255.027344 340.917969 249.003906 334.902344 249.003906 327.503906 L 249.003906 315.339844 C 249.003906 315.128906 249.175781 314.957031 249.386719 314.957031 L 281.984375 314.957031 C 282.195312 314.957031 282.371094 315.128906 282.371094 315.339844 L 282.371094 327.503906 C 282.371094 334.902344 276.34375 340.917969 268.941406 340.917969 " fill-opacity="1" fill-rule="nonzero"/></svg>